<svg width="81" height="101" viewBox="0 0 81 101" fill="none" xmlns="http://www.w3.org/2000/svg">
<path d="M38.2576 28.0871C44.841 28.0871 50.6929 32.0364 53.2531 38.2211C53.6931 39.3386 54.7904 40.008 55.959 40.008C56.179 40.008 56.399 40.008 56.6162 39.9323C57.422 39.7839 58.2249 39.6355 58.9564 39.6355C64.8083 39.6355 69.563 44.4782 69.563 50.4385C69.563 56.3987 64.8083 61.2415 58.9564 61.2415H17.4071C13.6039 61.2415 10.5323 58.0372 10.5323 54.1636C10.5323 50.29 13.6039 47.0858 17.4814 47.0858C17.8472 47.0858 18.2129 47.0858 18.653 47.1615C18.7987 47.1615 18.9444 47.2371 19.1644 47.2371C19.8216 47.2371 20.4817 47.013 21.0675 46.5678C21.7247 46.0468 22.0904 45.2261 22.0904 44.3327C22.0904 35.4653 29.4051 28.0871 38.2576 28.0871ZM38.2578 25.107C27.7258 25.107 19.1644 33.6749 19.0189 44.4019C18.5074 44.3263 17.9216 44.2535 17.3359 44.2535C11.924 44.2535 7.46076 48.7237 7.46076 54.3115C7.46076 59.8236 11.8497 64.3695 17.3359 64.3695H58.8851C66.3456 64.3695 72.4177 58.1851 72.4177 50.5863C72.4177 42.9877 66.3457 36.8032 58.8851 36.8032C57.8622 36.8032 56.8364 36.9516 55.8849 37.1757C53.0332 30.0251 46.2302 25.107 38.2578 25.107Z" fill="white"/>
</svg>
