<svg width="66" height="56" viewBox="0 0 66 56" fill="none" xmlns="http://www.w3.org/2000/svg">
<path fill-rule="evenodd" clip-rule="evenodd" d="M48.4705 12.5555C49.422 12.3314 50.4478 12.183 51.4707 12.183C59.0059 12.183 65.0751 18.3681 65.0751 25.9668C65.0751 33.5656 59.003 39.75 51.5426 39.75H44.0821C44.2278 39.3048 44.3736 38.8566 44.3736 38.3356C44.3736 37.739 44.2278 37.218 44.0078 36.7699H51.5429C57.3948 36.7699 62.1495 31.9271 62.1495 25.9668C62.1495 20.0066 57.3948 15.1638 51.5429 15.1638C50.8143 15.1638 50.0149 15.3111 49.2123 15.4589L49.2027 15.4607C48.9855 15.5364 48.7655 15.5364 48.5455 15.5364C47.3769 15.5364 46.2796 14.867 45.8396 13.7495C43.2794 7.56478 37.4275 3.6155 30.8441 3.6155C21.9916 3.6155 14.6769 10.9168 14.5311 19.9333C14.5311 20.8267 14.1654 21.6474 13.5082 22.1684C12.9224 22.6136 12.2624 22.8377 11.6052 22.8377C11.4839 22.8377 11.3852 22.8147 11.2966 22.7941C11.2245 22.7773 11.1591 22.7621 11.0937 22.7621C10.6536 22.6864 10.2879 22.6864 9.92215 22.6864C6.04467 22.6864 2.973 25.8906 2.973 29.7642C2.973 33.7135 6.11899 36.8421 9.92215 36.8421L24.1145 36.845H28.6491C28.4291 37.2932 28.2834 37.8141 28.2834 38.4107C28.2834 38.9317 28.3548 39.3769 28.5748 39.8251H9.92188C4.43572 39.8251 0.0467834 35.2792 0.0467834 29.7671C0.0467834 24.1794 4.51004 19.7092 9.92188 19.7092C10.5077 19.7092 11.0934 19.7819 11.6049 19.8576C11.7505 9.20285 20.3081 0.634949 30.7692 0.634949C38.7409 0.634949 45.5445 5.55337 48.4705 12.5555ZM37.1628 37.3509C37.3566 36.9848 37.217 36.531 36.8509 36.3372C36.4848 36.1433 36.031 36.283 35.8372 36.6491L31.3372 45.1491C31.1433 45.5152 31.283 45.969 31.6491 46.1628C32.0152 46.3566 32.469 46.217 32.6628 45.8509L37.1628 37.3509ZM23.8509 45.3372C24.217 45.531 24.3566 45.9848 24.1628 46.3509L19.6628 54.8509C19.469 55.217 19.0152 55.3566 18.6491 55.1628C18.283 54.969 18.1433 54.5152 18.3372 54.1491L22.8372 45.6491C23.031 45.283 23.4848 45.1433 23.8509 45.3372ZM45.1628 46.3509C45.3566 45.9848 45.217 45.531 44.8509 45.3372C44.4848 45.1433 44.031 45.283 43.8372 45.6491L39.3372 54.1491C39.1433 54.5152 39.283 54.969 39.6491 55.1628C40.0152 55.3566 40.469 55.217 40.6628 54.8509L45.1628 46.3509Z" fill="white"/>
</svg>
