<svg width="60" height="60" viewBox="0 0 60 60" fill="none" xmlns="http://www.w3.org/2000/svg">
<path fill-rule="evenodd" clip-rule="evenodd" d="M31 1.66669C31 1.1144 30.5523 0.666687 30 0.666687C29.4477 0.666687 29 1.1144 29 1.66669V7.33335C29 7.88564 29.4477 8.33335 30 8.33335C30.5523 8.33335 31 7.88564 31 7.33335V1.66669ZM10.6754 9.26125C10.2849 8.87072 9.65174 8.87072 9.26122 9.26125C8.87069 9.65177 8.87069 10.2849 9.26122 10.6755L13.2562 14.6705C13.6467 15.061 14.2799 15.061 14.6704 14.6705C15.061 14.2799 15.061 13.6468 14.6704 13.2562L10.6754 9.26125ZM50.7388 10.6755C51.1293 10.2849 51.1293 9.65177 50.7388 9.26125C50.3482 8.87072 49.7151 8.87072 49.3246 9.26125L45.3296 13.2562C44.939 13.6468 44.939 14.2799 45.3296 14.6705C45.7201 15.061 46.3532 15.061 46.7438 14.6705L50.7388 10.6755ZM1.66666 29C1.11437 29 0.666656 29.4477 0.666656 30C0.666656 30.5523 1.11437 31 1.66666 31H7.33332C7.88561 31 8.33332 30.5523 8.33332 30C8.33332 29.4477 7.88561 29 7.33332 29H1.66666ZM52.6667 29C52.1144 29 51.6667 29.4477 51.6667 30C51.6667 30.5523 52.1144 31 52.6667 31H58.3333C58.8856 31 59.3333 30.5523 59.3333 30C59.3333 29.4477 58.8856 29 58.3333 29H52.6667ZM14.6704 46.7438C15.061 46.3533 15.061 45.7201 14.6704 45.3296C14.2799 44.9391 13.6467 44.9391 13.2562 45.3296L9.26122 49.3246C8.87069 49.7151 8.87069 50.3483 9.26122 50.7388C9.65174 51.1293 10.2849 51.1293 10.6754 50.7388L14.6704 46.7438ZM46.7438 45.3296C46.3532 44.9391 45.7201 44.9391 45.3296 45.3296C44.939 45.7201 44.939 46.3533 45.3296 46.7438L49.3246 50.7388C49.7151 51.1293 50.3482 51.1293 50.7388 50.7388C51.1293 50.3483 51.1293 49.7151 50.7388 49.3246L46.7438 45.3296ZM31 52.6667C31 52.1144 30.5523 51.6667 30 51.6667C29.4477 51.6667 29 52.1144 29 52.6667V58.3334C29 58.8856 29.4477 59.3334 30 59.3334C30.5523 59.3334 31 58.8856 31 58.3334V52.6667ZM19.6667 30C19.6667 24.2931 24.293 19.6667 30 19.6667C35.7069 19.6667 40.3333 24.2931 40.3333 30C40.3333 35.707 35.7069 40.3334 30 40.3334C24.293 40.3334 19.6667 35.707 19.6667 30ZM30 17.6667C23.1885 17.6667 17.6667 23.1885 17.6667 30C17.6667 36.8115 23.1885 42.3334 30 42.3334C36.8115 42.3334 42.3333 36.8115 42.3333 30C42.3333 23.1885 36.8115 17.6667 30 17.6667Z" fill="white"/>
</svg>
